M48
; DRILL file {KiCad (6.0.0)} date Sun Jun 19 19:27:28 2022
; FORMAT={-:-/ absolute / inch / decimal}
; #@! TF.CreationDate,2022-06-19T19:27:28+02:00
; #@! TF.GenerationSoftware,Kicad,Pcbnew,(6.0.0)
; #@! TF.FileFunction,Plated,1,2,PTH
FMAT,2
INCH
; #@! TA.AperFunction,Plated,PTH,ViaDrill
T1C0.0157
; #@! TA.AperFunction,Plated,PTH,ComponentDrill
T2C0.0236
; #@! TA.AperFunction,Plated,PTH,ComponentDrill
T3C0.0591
%
G90
G05
T1
X2.622Y-2.4567
X2.622Y-2.5669
X2.7559Y-2.4213
X2.7706Y-2.0916
X2.7756Y-2.3425
X2.7953Y-1.8504
X2.9724Y-2.1063
X3.2283Y-2.126
X4.1929Y-2.0866
X4.2717Y-2.1654
X5.0Y-2.126
X5.7087Y-1.8307
X5.7677Y-2.1063
X5.9055Y-2.185
X5.9646Y-2.5394
X6.0827Y-2.0472
X6.0945Y-2.2283
X6.2008Y-2.185
T2
G00X2.3681Y-2.0346
M15
G01X2.3917Y-2.0346
M16
G05
G00X2.3681Y-2.3748
M15
G01X2.3917Y-2.3748
M16
G05
G00X2.5228Y-2.0346
M15
G01X2.5661Y-2.0346
M16
G05
G00X2.5228Y-2.3748
M15
G01X2.5661Y-2.3748
M16
G05
T3
G00X2.874Y-2.185
M15
G01X2.874Y-2.2244
M16
G05
G00X5.7087Y-2.185
M15
G01X5.7087Y-2.2244
M16
G05
T0
M30
