%TF.GenerationSoftware,KiCad,Pcbnew,(6.0.0)*%
%TF.CreationDate,2022-06-19T19:27:42+02:00*%
%TF.ProjectId,PCBv2,50434276-322e-46b6-9963-61645f706362,rev?*%
%TF.SameCoordinates,Original*%
%TF.FileFunction,Legend,Top*%
%TF.FilePolarity,Positive*%
%FSLAX46Y46*%
G04 Gerber Fmt 4.6, Leading zero omitted, Abs format (unit mm)*
G04 Created by KiCad (PCBNEW (6.0.0)) date 2022-06-19 19:27:42*
%MOMM*%
%LPD*%
G01*
G04 APERTURE LIST*
%ADD10C,0.120000*%
G04 APERTURE END LIST*
D10*
%TO.C,D3*%
X105350000Y-58750000D02*
X112650000Y-58750000D01*
X112650000Y-58750000D02*
X112650000Y-57600000D01*
X105350000Y-53250000D02*
X112650000Y-53250000D01*
%TO.C,D2*%
X127350000Y-58750000D02*
X134650000Y-58750000D01*
X127350000Y-53250000D02*
X134650000Y-53250000D01*
X134650000Y-58750000D02*
X134650000Y-57600000D01*
%TO.C,D4*%
X82350000Y-58750000D02*
X89650000Y-58750000D01*
X82350000Y-53250000D02*
X89650000Y-53250000D01*
X89650000Y-58750000D02*
X89650000Y-57600000D01*
%TO.C,SW1*%
X154030000Y-51800000D02*
X154030000Y-51830000D01*
X147570000Y-45370000D02*
X147570000Y-45400000D01*
X147570000Y-51830000D02*
X147570000Y-51800000D01*
X154030000Y-45370000D02*
X154030000Y-45400000D01*
X154030000Y-45370000D02*
X147570000Y-45370000D01*
X147570000Y-49900000D02*
X147570000Y-47300000D01*
X154030000Y-49900000D02*
X154030000Y-47300000D01*
X154030000Y-51830000D02*
X147570000Y-51830000D01*
%TO.C,D1*%
X153650000Y-58750000D02*
X153650000Y-57600000D01*
X146350000Y-53250000D02*
X153650000Y-53250000D01*
X146350000Y-58750000D02*
X153650000Y-58750000D01*
%TO.C,D5*%
X64350000Y-58750000D02*
X71650000Y-58750000D01*
X64350000Y-53250000D02*
X71650000Y-53250000D01*
X71650000Y-58750000D02*
X71650000Y-57600000D01*
%TO.C,SW2*%
X71900000Y-45300000D02*
X71900000Y-45000000D01*
X71800000Y-43400000D02*
X71300000Y-43400000D01*
X67800000Y-44200000D02*
X67800000Y-44700000D01*
X74400000Y-45300000D02*
X74400000Y-45300000D01*
X67700000Y-45000000D02*
X67700000Y-45300000D01*
X72700000Y-45300000D02*
X74400000Y-45300000D01*
X74400000Y-49100000D02*
X73000000Y-49100000D01*
X70500000Y-43400000D02*
X70500000Y-43400000D01*
X74400000Y-45300000D02*
X74400000Y-49100000D01*
X65200000Y-45300000D02*
X66900000Y-45300000D01*
X71600000Y-49100000D02*
X71600000Y-49100000D01*
X70200000Y-45000000D02*
X70200000Y-45300000D01*
X67800000Y-44700000D02*
X67800000Y-44700000D01*
X67700000Y-45300000D02*
X69400000Y-45300000D01*
X70200000Y-43400000D02*
X70200000Y-43400000D01*
X71000000Y-43400000D02*
X70500000Y-43400000D01*
X72700000Y-45000000D02*
X72700000Y-45300000D01*
X71800000Y-44200000D02*
X71800000Y-44700000D01*
X67800000Y-43900000D02*
X67800000Y-43900000D01*
X66900000Y-45300000D02*
X66900000Y-45000000D01*
X66900000Y-45000000D02*
X67700000Y-45000000D01*
X67800000Y-43400000D02*
X68300000Y-43400000D01*
X70500000Y-49100000D02*
X71600000Y-49100000D01*
X69400000Y-43400000D02*
X70200000Y-43400000D01*
X66600000Y-49100000D02*
X65200000Y-49100000D01*
X69100000Y-49100000D02*
X69100000Y-49100000D01*
X71300000Y-43400000D02*
X71300000Y-43400000D01*
X70200000Y-45300000D02*
X71900000Y-45300000D01*
X67800000Y-43400000D02*
X67800000Y-43900000D01*
X69400000Y-45000000D02*
X70200000Y-45000000D01*
X65200000Y-49100000D02*
X65200000Y-45300000D01*
X68000000Y-49100000D02*
X69100000Y-49100000D01*
X69100000Y-43400000D02*
X69100000Y-43400000D01*
X68600000Y-43400000D02*
X69100000Y-43400000D01*
X69400000Y-45300000D02*
X69400000Y-45000000D01*
X71800000Y-43900000D02*
X71800000Y-43900000D01*
X71800000Y-44700000D02*
X71800000Y-44700000D01*
X71900000Y-45000000D02*
X72700000Y-45000000D01*
X71800000Y-43400000D02*
X71800000Y-43900000D01*
X68300000Y-43400000D02*
X68300000Y-43400000D01*
%TD*%
M02*
