%TF.GenerationSoftware,KiCad,Pcbnew,(6.0.0)*%
%TF.CreationDate,2022-06-19T19:27:42+02:00*%
%TF.ProjectId,PCBv2,50434276-322e-46b6-9963-61645f706362,rev?*%
%TF.SameCoordinates,Original*%
%TF.FileFunction,Legend,Bot*%
%TF.FilePolarity,Positive*%
%FSLAX46Y46*%
G04 Gerber Fmt 4.6, Leading zero omitted, Abs format (unit mm)*
G04 Created by KiCad (PCBNEW (6.0.0)) date 2022-06-19 19:27:42*
%MOMM*%
%LPD*%
G01*
G04 APERTURE LIST*
%ADD10C,0.120000*%
%ADD11C,0.500000*%
G04 APERTURE END LIST*
D10*
%TO.C,R5*%
X150522500Y-58545276D02*
X150522500Y-59054724D01*
X149477500Y-58545276D02*
X149477500Y-59054724D01*
%TO.C,J1*%
X63400000Y-51300000D02*
X61400000Y-51300000D01*
X63400000Y-60700000D02*
X61400000Y-60700000D01*
X57600000Y-60700000D02*
X57600000Y-51300000D01*
X59500000Y-60700000D02*
X57600000Y-60700000D01*
X59500000Y-51300000D02*
X57600000Y-51300000D01*
%TO.C,BT1*%
X148500000Y-66500000D02*
X148500000Y-45500000D01*
D11*
X75000000Y-56000000D02*
X78000000Y-56000000D01*
X141000000Y-57500000D02*
X141000000Y-54500000D01*
D10*
X69500000Y-66500000D02*
X148500000Y-66500000D01*
D11*
X76500000Y-57500000D02*
X76500000Y-54500000D01*
D10*
X148500000Y-45500000D02*
X69500000Y-45500000D01*
X69500000Y-45500000D02*
X69500000Y-66500000D01*
%TO.C,R1*%
X67677500Y-48254724D02*
X67677500Y-47745276D01*
X68722500Y-48254724D02*
X68722500Y-47745276D01*
%TO.C,R2*%
X68277500Y-53254724D02*
X68277500Y-52745276D01*
X69322500Y-53254724D02*
X69322500Y-52745276D01*
%TO.C,C3*%
X67490000Y-64711252D02*
X67490000Y-63288748D01*
X69310000Y-64711252D02*
X69310000Y-63288748D01*
%TO.C,C1*%
X149490000Y-53053733D02*
X149490000Y-53346267D01*
X150510000Y-53053733D02*
X150510000Y-53346267D01*
%TO.C,U2*%
X62640000Y-64200000D02*
X62640000Y-62400000D01*
X62640000Y-64200000D02*
X62640000Y-65000000D01*
X65760000Y-64200000D02*
X65760000Y-65000000D01*
X65760000Y-64200000D02*
X65760000Y-63400000D01*
%TO.C,U1*%
X153240000Y-56000000D02*
X153240000Y-54050000D01*
X158360000Y-56000000D02*
X158360000Y-54050000D01*
X158360000Y-56000000D02*
X158360000Y-59450000D01*
X153240000Y-56000000D02*
X153240000Y-57950000D01*
%TO.C,R6*%
X150522500Y-62945276D02*
X150522500Y-63454724D01*
X149477500Y-62945276D02*
X149477500Y-63454724D01*
%TO.C,C2*%
X68290000Y-59146267D02*
X68290000Y-58853733D01*
X69310000Y-59146267D02*
X69310000Y-58853733D01*
%TO.C,R3*%
X65522500Y-48254724D02*
X65522500Y-47745276D01*
X64477500Y-48254724D02*
X64477500Y-47745276D01*
%TO.C,R4*%
X149477500Y-48545276D02*
X149477500Y-49054724D01*
X150522500Y-48545276D02*
X150522500Y-49054724D01*
%TD*%
M02*
