%TF.GenerationSoftware,KiCad,Pcbnew,(6.0.0)*%
%TF.CreationDate,2022-06-19T19:27:42+02:00*%
%TF.ProjectId,PCBv2,50434276-322e-46b6-9963-61645f706362,rev?*%
%TF.SameCoordinates,Original*%
%TF.FileFunction,Soldermask,Top*%
%TF.FilePolarity,Negative*%
%FSLAX46Y46*%
G04 Gerber Fmt 4.6, Leading zero omitted, Abs format (unit mm)*
G04 Created by KiCad (PCBNEW (6.0.0)) date 2022-06-19 19:27:42*
%MOMM*%
%LPD*%
G01*
G04 APERTURE LIST*
%ADD10R,1.500000X1.000000*%
%ADD11R,1.550000X1.300000*%
%ADD12C,0.900000*%
%ADD13R,1.250000X2.500000*%
%ADD14C,0.650000*%
%ADD15O,2.100000X1.000000*%
%ADD16O,1.600000X1.000000*%
%ADD17O,2.500000X3.500000*%
G04 APERTURE END LIST*
D10*
%TO.C,D3*%
X106550000Y-54400000D03*
X106550000Y-57600000D03*
X111450000Y-57600000D03*
X111450000Y-54400000D03*
%TD*%
%TO.C,D2*%
X128550000Y-54400000D03*
X128550000Y-57600000D03*
X133450000Y-57600000D03*
X133450000Y-54400000D03*
%TD*%
%TO.C,D4*%
X83550000Y-54400000D03*
X83550000Y-57600000D03*
X88450000Y-57600000D03*
X88450000Y-54400000D03*
%TD*%
D11*
%TO.C,SW1*%
X154775000Y-50850000D03*
X146825000Y-50850000D03*
X146825000Y-46350000D03*
X154775000Y-46350000D03*
%TD*%
D10*
%TO.C,D1*%
X147550000Y-54400000D03*
X147550000Y-57600000D03*
X152450000Y-57600000D03*
X152450000Y-54400000D03*
%TD*%
%TO.C,D5*%
X65550000Y-54400000D03*
X65550000Y-57600000D03*
X70450000Y-57600000D03*
X70450000Y-54400000D03*
%TD*%
D12*
%TO.C,SW2*%
X66400000Y-47200000D03*
X73200000Y-47200000D03*
D13*
X72300000Y-49950000D03*
X69800000Y-49950000D03*
X67300000Y-49950000D03*
%TD*%
D14*
%TO.C,J1*%
X64100000Y-53110000D03*
X64100000Y-58890000D03*
D15*
X64630000Y-51680000D03*
X64630000Y-60320000D03*
D16*
X60450000Y-51680000D03*
X60450000Y-60320000D03*
%TD*%
D17*
%TO.C,BT1*%
X73000000Y-56000000D03*
X145000000Y-56000000D03*
%TD*%
M02*
