0
SECTION
2
HEADER
9
$INSUNITS
70
4
9
$ACADVER
1
AC1014
9
$HANDSEED
5
FFFF
0
ENDSEC
0
SECTION
2
TABLES
0
TABLE
2
VPORT
5
8
100
AcDbSymbolTable
0
ENDTAB
0
TABLE
2
LTYPE
5
5
100
AcDbSymbolTable
0
LTYPE
5
14
100
AcDbSymbolTableRecord
100
AcDbLinetypeTableRecord
2
BYBLOCK
70
0
0
LTYPE
5
15
100
AcDbSymbolTableRecord
100
AcDbLinetypeTableRecord
2
BYLAYER
70
0
0
ENDTAB
0
TABLE
2
LAYER
5
2
100
AcDbSymbolTable
70
2
0
LAYER
5
50
100
AcDbSymbolTableRecord
100
AcDbLayerTableRecord
2
0
70
0
6
CONTINUOUS
0
ENDTAB
0
TABLE
2
STYLE
5
3
100
AcDbSymbolTable
70
1
0
STYLE
5
11
100
AcDbSymbolTableRecord
100
AcDbTextStyleTableRecord
2
STANDARD
70
0
0
ENDTAB
0
TABLE
2
VIEW
5
6
100
AcDbSymbolTable
70
0
0
ENDTAB
0
TABLE
2
UCS
5
7
100
AcDbSymbolTable
70
0
0
ENDTAB
0
TABLE
2
APPID
5
9
100
AcDbSymbolTable
70
2
0
APPID
5
12
100
AcDbSymbolTableRecord
100
AcDbRegAppTableRecord
2
ACAD
70
0
0
ENDTAB
0
TABLE
2
DIMSTYLE
5
A
100
AcDbSymbolTable
70
1
0
ENDTAB
0
TABLE
2
BLOCK_RECORD
5
1
100
AcDbSymbolTable
70
1
0
BLOCK_RECORD
5
1F
100
AcDbSymbolTableRecord
100
AcDbBlockTableRecord
2
*MODEL_SPACE
0
BLOCK_RECORD
5
1B
100
AcDbSymbolTableRecord
100
AcDbBlockTableRecord
2
*PAPER_SPACE
0
ENDTAB
0
ENDSEC
0
SECTION
2
BLOCKS
0
BLOCK
5
20
100
AcDbEntity
100
AcDbBlockBegin
2
*MODEL_SPACE
0
ENDBLK
5
21
100
AcDbEntity
100
AcDbBlockEnd
0
BLOCK
5
1C
100
AcDbEntity
100
AcDbBlockBegin
2
*PAPER_SPACE
0
ENDBLK
5
1D
100
AcDbEntity
100
AcDbBlockEnd
0
ENDSEC
0
SECTION
2
ENTITIES
0
LINE
5
100
100
AcDbEntity
8
0
100
AcDbLine
10
4.5
20
-1.7000000000000002
30
0
11
4.5000000000000062
21
-11.700000000000001
31
0
0
SPLINE
5
101
100
AcDbEntity
8
0
100
AcDbSpline
70
4
71
5
72
31
73
25
74
0
42
0.000000001
43
0.0000000001
44
0.0000000001
40
0
40
0
40
0
40
0
40
0
40
0
40
0.050000000000000003
40
0.10000000000000001
40
0.15000000000000002
40
0.20000000000000001
40
0.25
40
0.29999999999999999
40
0.34999999999999998
40
0.39999999999999997
40
0.44999999999999996
40
0.49999999999999994
40
0.54999999999999993
40
0.59999999999999998
40
0.65000000000000002
40
0.70000000000000007
40
0.75000000000000011
40
0.80000000000000016
40
0.8500000000000002
40
0.90000000000000024
40
0.95000000000000029
40
1
40
1
40
1
40
1
40
1
40
1
41
1
41
1
41
1
41
1
41
1
41
1
41
1
41
1
41
1
41
1
41
1
41
1
41
1
41
1
41
1
41
1
41
1
41
1
41
1
41
1
41
1
41
1
41
1
41
1
41
1
10
4.5000000000000062
20
-11.700000000000001
30
0
10
4.6067517320383757
20
-11.69006396208875
30
0
10
4.8166175365941584
20
-11.659709107783485
30
0
10
5.1204994160544466
20
-11.582724541614482
30
0
10
5.5037860717385705
20
-11.416951672959353
30
0
10
5.9424068750245462
20
-11.099018130241916
30
0
10
6.3300352698303239
20
-10.657102292393645
30
0
10
6.6449283140601558
20
-10.065232807597798
30
0
10
6.866231570119691
20
-9.2972603694474554
30
0
10
6.9912385553001455
20
-8.3447028471638358
30
0
10
7.0479214607326686
20
-7.2298266842097814
30
0
10
7.1179789639034379
20
-6.029469646345337
30
0
10
7.3133172014573002
20
-4.8516418617549171
30
0
10
7.7415042545912325
20
-3.8008913390472001
30
0
10
8.4629290845230667
20
-2.9355871952928476
30
0
10
9.476949824046601
20
-2.2541786400840591
30
0
10
10.630316589570693
20
-1.6040108858654873
30
0
10
11.782528676177948
20
-0.84664336954767405
30
0
10
12.849118848910834
20
0.099622147895732857
30
0
10
13.77175148863153
20
1.2900834797582663
30
0
10
14.519876870072444
20
2.7524301360909105
30
0
10
14.9675056500461
20
4.1492004191531109
30
0
10
15.21711735334884
20
5.3249463097339103
30
0
10
15.345393738580896
20
6.165524738304363
30
0
10
15.4
20
6.5999999999999996
30
0
0
LINE
5
102
100
AcDbEntity
8
0
100
AcDbLine
10
15.4
20
6.5999999999999979
30
0
11
10.4
21
6.5999999999999979
31
0
0
LINE
5
103
100
AcDbEntity
8
0
100
AcDbLine
10
6.9000000000000004
20
1.5999999999999994
30
0
11
7.4000000000000012
21
1.5999999999999994
31
0
0
LINE
5
104
100
AcDbEntity
8
0
100
AcDbLine
10
7.4000000000000012
20
1.5999999999999994
30
0
11
7.4000000000000012
21
-1.1102230246251565e-15
31
0
0
LINE
5
105
100
AcDbEntity
8
0
100
AcDbLine
10
7.4000000000000012
20
-1.1102230246251565e-15
30
0
11
-7.4000000000000012
21
-1.1102230246251565e-15
31
0
0
LINE
5
106
100
AcDbEntity
8
0
100
AcDbLine
10
-7.4000000000000012
20
-1.1102230246251565e-15
30
0
11
-7.4000000000000012
21
1.5999999999999994
31
0
0
LINE
5
107
100
AcDbEntity
8
0
100
AcDbLine
10
-7.4000000000000012
20
1.5999999999999994
30
0
11
-6.9000000000000004
21
1.5999999999999994
31
0
0
LINE
5
108
100
AcDbEntity
8
0
100
AcDbLine
10
-10.4
20
6.5999999999999979
30
0
11
-15.4
21
6.5999999999999996
31
0
0
SPLINE
5
109
100
AcDbEntity
8
0
100
AcDbSpline
70
4
71
5
72
31
73
25
74
0
42
0.000000001
43
0.0000000001
44
0.0000000001
40
0
40
0
40
0
40
0
40
0
40
0
40
0.050000000000000003
40
0.10000000000000001
40
0.15000000000000002
40
0.20000000000000001
40
0.25
40
0.29999999999999999
40
0.34999999999999998
40
0.39999999999999997
40
0.44999999999999996
40
0.49999999999999994
40
0.54999999999999993
40
0.59999999999999998
40
0.65000000000000002
40
0.70000000000000007
40
0.75000000000000011
40
0.80000000000000016
40
0.8500000000000002
40
0.90000000000000024
40
0.95000000000000029
40
1
40
1
40
1
40
1
40
1
40
1
41
1
41
1
41
1
41
1
41
1
41
1
41
1
41
1
41
1
41
1
41
1
41
1
41
1
41
1
41
1
41
1
41
1
41
1
41
1
41
1
41
1
41
1
41
1
41
1
41
1
10
-4.5000000000000062
20
-11.700000000000001
30
0
10
-4.6067517320383757
20
-11.69006396208875
30
0
10
-4.8166175365941584
20
-11.659709107783485
30
0
10
-5.1204994160544466
20
-11.582724541614482
30
0
10
-5.5037860717385705
20
-11.416951672959353
30
0
10
-5.9424068750245462
20
-11.099018130241916
30
0
10
-6.3300352698303239
20
-10.657102292393645
30
0
10
-6.6449283140601558
20
-10.065232807597798
30
0
10
-6.866231570119691
20
-9.2972603694474554
30
0
10
-6.9912385553001455
20
-8.3447028471638358
30
0
10
-7.0479214607326686
20
-7.2298266842097814
30
0
10
-7.1179789639034379
20
-6.029469646345337
30
0
10
-7.3133172014573002
20
-4.8516418617549171
30
0
10
-7.7415042545912325
20
-3.8008913390472001
30
0
10
-8.4629290845230667
20
-2.9355871952928476
30
0
10
-9.476949824046601
20
-2.2541786400840591
30
0
10
-10.630316589570693
20
-1.6040108858654873
30
0
10
-11.782528676177948
20
-0.84664336954767405
30
0
10
-12.849118848910834
20
0.099622147895732857
30
0
10
-13.77175148863153
20
1.2900834797582663
30
0
10
-14.519876870072444
20
2.7524301360909105
30
0
10
-14.9675056500461
20
4.1492004191531109
30
0
10
-15.21711735334884
20
5.3249463097339103
30
0
10
-15.345393738580896
20
6.165524738304363
30
0
10
-15.4
20
6.5999999999999996
30
0
0
LINE
5
110
100
AcDbEntity
8
0
100
AcDbLine
10
-4.5000000000000062
20
-11.700000000000001
30
0
11
-4.5
21
-1.7000000000000002
31
0
0
LINE
5
111
100
AcDbEntity
8
0
100
AcDbLine
10
-4.5
20
-1.7000000000000002
30
0
11
4.5
21
-1.7000000000000002
31
0
0
SPLINE
5
112
100
AcDbEntity
8
0
100
AcDbSpline
70
4
71
5
72
21
73
15
74
0
42
0.000000001
43
0.0000000001
44
0.0000000001
40
-1
40
-1
40
-1
40
-1
40
-1
40
-1
40
-0.89999999999999991
40
-0.79999999999999993
40
-0.69999999999999996
40
-0.59999999999999998
40
-0.5
40
-0.40000000000000002
40
-0.30000000000000004
40
-0.20000000000000001
40
-0.10000000000000001
40
0
40
0
40
0
40
0
40
0
40
0
41
1
41
1
41
1
41
1
41
1
41
1
41
1
41
1
41
1
41
1
41
1
41
1
41
1
41
1
41
1
10
10.4
20
6.5999999999999979
30
0
10
10.390521326806423
20
6.5042655371531675
30
0
10
10.366107802429861
20
6.314215120179913
30
0
10
10.313118590577259
20
6.0333951226173266
30
0
10
10.209193253736458
20
5.6676188584124896
30
0
10
10.020224367266707
20
5.2257536481297739
30
0
10
9.7675239425841571
20
4.8004574982601467
30
0
10
9.4468453783573416
20
4.3928344492215494
30
0
10
9.0576275934017136
20
4.0030303720910148
30
0
10
8.6042597046800395
20
3.6299041749369687
30
0
10
8.0923474171388019
20
3.2719984747046555
30
0
10
7.6401827727318015
20
2.9967582039485938
30
0
10
7.2786592419528962
20
2.7961516127140125
30
0
10
7.0278518103636713
20
2.6649595636938148
30
0
10
6.900000000000003
20
2.5999999999999988
30
0
0
SPLINE
5
113
100
AcDbEntity
8
0
100
AcDbSpline
70
4
71
5
72
21
73
15
74
0
42
0.000000001
43
0.0000000001
44
0.0000000001
40
-1
40
-1
40
-1
40
-1
40
-1
40
-1
40
-0.89999999999999991
40
-0.79999999999999993
40
-0.69999999999999996
40
-0.59999999999999998
40
-0.5
40
-0.40000000000000002
40
-0.30000000000000004
40
-0.20000000000000001
40
-0.10000000000000001
40
0
40
0
40
0
40
0
40
0
40
0
41
1
41
1
41
1
41
1
41
1
41
1
41
1
41
1
41
1
41
1
41
1
41
1
41
1
41
1
41
1
10
-10.4
20
6.5999999999999979
30
0
10
-10.390521326806423
20
6.5042655371531675
30
0
10
-10.366107802429861
20
6.314215120179913
30
0
10
-10.313118590577259
20
6.0333951226173266
30
0
10
-10.209193253736458
20
5.6676188584124896
30
0
10
-10.020224367266707
20
5.2257536481297739
30
0
10
-9.7675239425841571
20
4.8004574982601467
30
0
10
-9.4468453783573416
20
4.3928344492215494
30
0
10
-9.0576275934017136
20
4.0030303720910148
30
0
10
-8.6042597046800395
20
3.6299041749369687
30
0
10
-8.0923474171388019
20
3.2719984747046555
30
0
10
-7.6401827727318015
20
2.9967582039485938
30
0
10
-7.2786592419528962
20
2.7961516127140125
30
0
10
-7.0278518103636713
20
2.6649595636938148
30
0
10
-6.900000000000003
20
2.5999999999999988
30
0
0
LINE
5
114
100
AcDbEntity
8
0
100
AcDbLine
10
6.9000000000000021
20
2.5999999999999988
30
0
11
6.9000000000000004
21
1.5999999999999994
31
0
0
LINE
5
115
100
AcDbEntity
8
0
100
AcDbLine
10
-6.9000000000000004
20
1.5999999999999994
30
0
11
-6.900000000000003
21
2.5999999999999988
31
0
0
ENDSEC
0
SECTION
2
OBJECTS
0
DICTIONARY
5
C
100
AcDbDictionary
3
ACAD_GROUP
350
D
3
ACAD_MLINESTYLE
350
17
0
DICTIONARY
5
D
100
AcDbDictionary
0
DICTIONARY
5
1A
330
C
100
AcDbDictionary
0
DICTIONARY
5
17
100
AcDbDictionary
0
ENDSEC
0
EOF
